<mxfile host="app.diagrams.net" agent="Mozilla/5.0 (Windows NT 10.0; Win64; x64) AppleWebKit/537.36 (KHTML, like Gecko) Chrome/134.0.0.0 Safari/537.36 OPR/119.0.0.0" version="27.1.5">
  <diagram name="Page-1" id="fdkg15RRhnWWPbiIg5Ko">
    <mxGraphModel dx="2513" dy="1040" grid="1" gridSize="10" guides="1" tooltips="1" connect="1" arrows="1" fold="1" page="1" pageScale="1" pageWidth="850" pageHeight="1100" math="0" shadow="0">
      <root>
        <mxCell id="0" />
        <mxCell id="1" parent="0" />
        <mxCell id="eOdLBUOXUQr9Y16HXxK5-1" value="DICMS" style="swimlane;whiteSpace=wrap;html=1;" parent="1" vertex="1">
          <mxGeometry x="10" y="140" width="1180" height="2790" as="geometry">
            <mxRectangle x="300" y="140" width="80" height="30" as="alternateBounds" />
          </mxGeometry>
        </mxCell>
        <mxCell id="eOdLBUOXUQr9Y16HXxK5-8" value="Login" style="ellipse;whiteSpace=wrap;html=1;" parent="eOdLBUOXUQr9Y16HXxK5-1" vertex="1">
          <mxGeometry x="40" y="50" width="80" height="60" as="geometry" />
        </mxCell>
        <mxCell id="eOdLBUOXUQr9Y16HXxK5-12" value="Forget Password" style="ellipse;whiteSpace=wrap;html=1;" parent="eOdLBUOXUQr9Y16HXxK5-1" vertex="1">
          <mxGeometry x="210" y="50" width="90" height="60" as="geometry" />
        </mxCell>
        <mxCell id="eOdLBUOXUQr9Y16HXxK5-13" value="" style="endArrow=none;dashed=1;html=1;rounded=0;exitX=1;exitY=0.5;exitDx=0;exitDy=0;entryX=0;entryY=0.5;entryDx=0;entryDy=0;startArrow=classicThin;startFill=1;" parent="eOdLBUOXUQr9Y16HXxK5-1" source="eOdLBUOXUQr9Y16HXxK5-8" target="eOdLBUOXUQr9Y16HXxK5-12" edge="1">
          <mxGeometry width="50" height="50" relative="1" as="geometry">
            <mxPoint x="110" y="90" as="sourcePoint" />
            <mxPoint x="160" y="40" as="targetPoint" />
          </mxGeometry>
        </mxCell>
        <mxCell id="eOdLBUOXUQr9Y16HXxK5-15" value="Extends" style="edgeLabel;html=1;align=center;verticalAlign=middle;resizable=0;points=[];" parent="eOdLBUOXUQr9Y16HXxK5-13" vertex="1" connectable="0">
          <mxGeometry x="-0.0625" y="-2" relative="1" as="geometry">
            <mxPoint x="3" y="-7" as="offset" />
          </mxGeometry>
        </mxCell>
        <mxCell id="eOdLBUOXUQr9Y16HXxK5-22" value="Logout" style="ellipse;whiteSpace=wrap;html=1;" parent="eOdLBUOXUQr9Y16HXxK5-1" vertex="1">
          <mxGeometry x="40" y="120" width="90" height="60" as="geometry" />
        </mxCell>
        <mxCell id="eOdLBUOXUQr9Y16HXxK5-28" value="Change Password" style="ellipse;whiteSpace=wrap;html=1;" parent="eOdLBUOXUQr9Y16HXxK5-1" vertex="1">
          <mxGeometry x="40" y="190" width="100" height="60" as="geometry" />
        </mxCell>
        <mxCell id="eOdLBUOXUQr9Y16HXxK5-30" value="View User Profile Details" style="ellipse;whiteSpace=wrap;html=1;" parent="eOdLBUOXUQr9Y16HXxK5-1" vertex="1">
          <mxGeometry x="40" y="270" width="110" height="60" as="geometry" />
        </mxCell>
        <mxCell id="eOdLBUOXUQr9Y16HXxK5-33" style="rounded=0;orthogonalLoop=1;jettySize=auto;html=1;exitX=0;exitY=0.5;exitDx=0;exitDy=0;entryX=1;entryY=0.5;entryDx=0;entryDy=0;dashed=1;" parent="eOdLBUOXUQr9Y16HXxK5-1" source="eOdLBUOXUQr9Y16HXxK5-32" target="eOdLBUOXUQr9Y16HXxK5-30" edge="1">
          <mxGeometry relative="1" as="geometry" />
        </mxCell>
        <mxCell id="eOdLBUOXUQr9Y16HXxK5-34" value="Extends" style="edgeLabel;html=1;align=center;verticalAlign=middle;resizable=0;points=[];" parent="eOdLBUOXUQr9Y16HXxK5-33" vertex="1" connectable="0">
          <mxGeometry x="0.0961" y="1" relative="1" as="geometry">
            <mxPoint x="10" y="-3" as="offset" />
          </mxGeometry>
        </mxCell>
        <mxCell id="eOdLBUOXUQr9Y16HXxK5-32" value="Update User Profile Details" style="ellipse;whiteSpace=wrap;html=1;" parent="eOdLBUOXUQr9Y16HXxK5-1" vertex="1">
          <mxGeometry x="260" y="265" width="120" height="70" as="geometry" />
        </mxCell>
        <mxCell id="eOdLBUOXUQr9Y16HXxK5-44" value="View List Users" style="ellipse;whiteSpace=wrap;html=1;" parent="eOdLBUOXUQr9Y16HXxK5-1" vertex="1">
          <mxGeometry x="50" y="510" width="110" height="80" as="geometry" />
        </mxCell>
        <mxCell id="eOdLBUOXUQr9Y16HXxK5-47" style="rounded=0;orthogonalLoop=1;jettySize=auto;html=1;exitX=0.5;exitY=1;exitDx=0;exitDy=0;dashed=1;" parent="eOdLBUOXUQr9Y16HXxK5-1" source="eOdLBUOXUQr9Y16HXxK5-46" target="eOdLBUOXUQr9Y16HXxK5-44" edge="1">
          <mxGeometry relative="1" as="geometry" />
        </mxCell>
        <mxCell id="eOdLBUOXUQr9Y16HXxK5-48" value="Extends" style="edgeLabel;html=1;align=center;verticalAlign=middle;resizable=0;points=[];" parent="eOdLBUOXUQr9Y16HXxK5-47" vertex="1" connectable="0">
          <mxGeometry x="-0.0362" y="4" relative="1" as="geometry">
            <mxPoint as="offset" />
          </mxGeometry>
        </mxCell>
        <mxCell id="eOdLBUOXUQr9Y16HXxK5-46" value="Search User" style="ellipse;whiteSpace=wrap;html=1;" parent="eOdLBUOXUQr9Y16HXxK5-1" vertex="1">
          <mxGeometry x="55" y="380" width="100" height="70" as="geometry" />
        </mxCell>
        <mxCell id="eOdLBUOXUQr9Y16HXxK5-50" style="rounded=0;orthogonalLoop=1;jettySize=auto;html=1;exitX=0;exitY=0.5;exitDx=0;exitDy=0;entryX=1;entryY=0.5;entryDx=0;entryDy=0;dashed=1;" parent="eOdLBUOXUQr9Y16HXxK5-1" source="eOdLBUOXUQr9Y16HXxK5-49" target="eOdLBUOXUQr9Y16HXxK5-44" edge="1">
          <mxGeometry relative="1" as="geometry" />
        </mxCell>
        <mxCell id="eOdLBUOXUQr9Y16HXxK5-51" value="Extends" style="edgeLabel;html=1;align=center;verticalAlign=middle;resizable=0;points=[];" parent="eOdLBUOXUQr9Y16HXxK5-50" vertex="1" connectable="0">
          <mxGeometry x="-0.0644" y="-4" relative="1" as="geometry">
            <mxPoint as="offset" />
          </mxGeometry>
        </mxCell>
        <mxCell id="eOdLBUOXUQr9Y16HXxK5-56" style="rounded=0;orthogonalLoop=1;jettySize=auto;html=1;exitX=0.5;exitY=1;exitDx=0;exitDy=0;dashed=1;" parent="eOdLBUOXUQr9Y16HXxK5-1" source="eOdLBUOXUQr9Y16HXxK5-49" target="eOdLBUOXUQr9Y16HXxK5-52" edge="1">
          <mxGeometry relative="1" as="geometry" />
        </mxCell>
        <mxCell id="eOdLBUOXUQr9Y16HXxK5-57" value="Extends" style="edgeLabel;html=1;align=center;verticalAlign=middle;resizable=0;points=[];" parent="eOdLBUOXUQr9Y16HXxK5-56" vertex="1" connectable="0">
          <mxGeometry x="0.0217" y="2" relative="1" as="geometry">
            <mxPoint as="offset" />
          </mxGeometry>
        </mxCell>
        <mxCell id="eOdLBUOXUQr9Y16HXxK5-49" value="Update User" style="ellipse;whiteSpace=wrap;html=1;" parent="eOdLBUOXUQr9Y16HXxK5-1" vertex="1">
          <mxGeometry x="260" y="380" width="110" height="70" as="geometry" />
        </mxCell>
        <mxCell id="eOdLBUOXUQr9Y16HXxK5-53" style="rounded=0;orthogonalLoop=1;jettySize=auto;html=1;exitX=0;exitY=0.5;exitDx=0;exitDy=0;entryX=1;entryY=0.5;entryDx=0;entryDy=0;dashed=1;" parent="eOdLBUOXUQr9Y16HXxK5-1" source="eOdLBUOXUQr9Y16HXxK5-52" target="eOdLBUOXUQr9Y16HXxK5-44" edge="1">
          <mxGeometry relative="1" as="geometry" />
        </mxCell>
        <mxCell id="eOdLBUOXUQr9Y16HXxK5-55" value="Extends" style="edgeLabel;html=1;align=center;verticalAlign=middle;resizable=0;points=[];" parent="eOdLBUOXUQr9Y16HXxK5-53" vertex="1" connectable="0">
          <mxGeometry x="0.0574" relative="1" as="geometry">
            <mxPoint x="3" y="-3" as="offset" />
          </mxGeometry>
        </mxCell>
        <mxCell id="eOdLBUOXUQr9Y16HXxK5-52" value="View User Details" style="ellipse;whiteSpace=wrap;html=1;" parent="eOdLBUOXUQr9Y16HXxK5-1" vertex="1">
          <mxGeometry x="260" y="510" width="110" height="70" as="geometry" />
        </mxCell>
        <mxCell id="eOdLBUOXUQr9Y16HXxK5-58" value="View List Courses" style="ellipse;whiteSpace=wrap;html=1;" parent="eOdLBUOXUQr9Y16HXxK5-1" vertex="1">
          <mxGeometry x="180" y="610" width="110" height="80" as="geometry" />
        </mxCell>
        <mxCell id="eOdLBUOXUQr9Y16HXxK5-61" style="rounded=0;orthogonalLoop=1;jettySize=auto;html=1;exitX=0.5;exitY=0;exitDx=0;exitDy=0;entryX=0.5;entryY=1;entryDx=0;entryDy=0;dashed=1;" parent="eOdLBUOXUQr9Y16HXxK5-1" source="eOdLBUOXUQr9Y16HXxK5-60" target="eOdLBUOXUQr9Y16HXxK5-58" edge="1">
          <mxGeometry relative="1" as="geometry" />
        </mxCell>
        <mxCell id="eOdLBUOXUQr9Y16HXxK5-62" value="Extends" style="edgeLabel;html=1;align=center;verticalAlign=middle;resizable=0;points=[];" parent="eOdLBUOXUQr9Y16HXxK5-61" vertex="1" connectable="0">
          <mxGeometry x="-0.081" y="2" relative="1" as="geometry">
            <mxPoint as="offset" />
          </mxGeometry>
        </mxCell>
        <mxCell id="eOdLBUOXUQr9Y16HXxK5-60" value="Add New Courses" style="ellipse;whiteSpace=wrap;html=1;" parent="eOdLBUOXUQr9Y16HXxK5-1" vertex="1">
          <mxGeometry x="25" y="770" width="120" height="80" as="geometry" />
        </mxCell>
        <mxCell id="eOdLBUOXUQr9Y16HXxK5-65" style="rounded=0;orthogonalLoop=1;jettySize=auto;html=1;exitX=0;exitY=0.5;exitDx=0;exitDy=0;entryX=0.5;entryY=1;entryDx=0;entryDy=0;dashed=1;" parent="eOdLBUOXUQr9Y16HXxK5-1" source="eOdLBUOXUQr9Y16HXxK5-63" target="eOdLBUOXUQr9Y16HXxK5-58" edge="1">
          <mxGeometry relative="1" as="geometry" />
        </mxCell>
        <mxCell id="eOdLBUOXUQr9Y16HXxK5-66" value="Extends" style="edgeLabel;html=1;align=center;verticalAlign=middle;resizable=0;points=[];" parent="eOdLBUOXUQr9Y16HXxK5-65" vertex="1" connectable="0">
          <mxGeometry x="0.0006" relative="1" as="geometry">
            <mxPoint as="offset" />
          </mxGeometry>
        </mxCell>
        <mxCell id="eOdLBUOXUQr9Y16HXxK5-63" value="View Course Details" style="ellipse;whiteSpace=wrap;html=1;" parent="eOdLBUOXUQr9Y16HXxK5-1" vertex="1">
          <mxGeometry x="392.75" y="730" width="120" height="80" as="geometry" />
        </mxCell>
        <mxCell id="eOdLBUOXUQr9Y16HXxK5-68" style="rounded=0;orthogonalLoop=1;jettySize=auto;html=1;entryX=0.5;entryY=1;entryDx=0;entryDy=0;dashed=1;" parent="eOdLBUOXUQr9Y16HXxK5-1" source="eOdLBUOXUQr9Y16HXxK5-67" target="eOdLBUOXUQr9Y16HXxK5-58" edge="1">
          <mxGeometry relative="1" as="geometry" />
        </mxCell>
        <mxCell id="eOdLBUOXUQr9Y16HXxK5-69" value="Extends" style="edgeLabel;html=1;align=center;verticalAlign=middle;resizable=0;points=[];" parent="eOdLBUOXUQr9Y16HXxK5-68" vertex="1" connectable="0">
          <mxGeometry x="-0.0038" relative="1" as="geometry">
            <mxPoint as="offset" />
          </mxGeometry>
        </mxCell>
        <mxCell id="eOdLBUOXUQr9Y16HXxK5-67" value="Update Course" style="ellipse;whiteSpace=wrap;html=1;" parent="eOdLBUOXUQr9Y16HXxK5-1" vertex="1">
          <mxGeometry x="182.5" y="830" width="110" height="70" as="geometry" />
        </mxCell>
        <mxCell id="eOdLBUOXUQr9Y16HXxK5-70" value="View List Learning Profiles" style="ellipse;whiteSpace=wrap;html=1;" parent="eOdLBUOXUQr9Y16HXxK5-1" vertex="1">
          <mxGeometry x="77.5" y="1550" width="120" height="80" as="geometry" />
        </mxCell>
        <mxCell id="eOdLBUOXUQr9Y16HXxK5-74" style="rounded=0;orthogonalLoop=1;jettySize=auto;html=1;exitX=0.5;exitY=0;exitDx=0;exitDy=0;entryX=1;entryY=0.5;entryDx=0;entryDy=0;dashed=1;" parent="eOdLBUOXUQr9Y16HXxK5-1" source="eOdLBUOXUQr9Y16HXxK5-72" target="eOdLBUOXUQr9Y16HXxK5-70" edge="1">
          <mxGeometry relative="1" as="geometry" />
        </mxCell>
        <mxCell id="eOdLBUOXUQr9Y16HXxK5-75" value="Extends" style="edgeLabel;html=1;align=center;verticalAlign=middle;resizable=0;points=[];" parent="eOdLBUOXUQr9Y16HXxK5-74" vertex="1" connectable="0">
          <mxGeometry x="0.1591" y="-3" relative="1" as="geometry">
            <mxPoint as="offset" />
          </mxGeometry>
        </mxCell>
        <mxCell id="eOdLBUOXUQr9Y16HXxK5-72" value="Create New Learning Profile" style="ellipse;whiteSpace=wrap;html=1;" parent="eOdLBUOXUQr9Y16HXxK5-1" vertex="1">
          <mxGeometry x="350" y="1710" width="130" height="80" as="geometry" />
        </mxCell>
        <mxCell id="eOdLBUOXUQr9Y16HXxK5-77" style="rounded=0;orthogonalLoop=1;jettySize=auto;html=1;exitX=0;exitY=0.5;exitDx=0;exitDy=0;entryX=1;entryY=0.5;entryDx=0;entryDy=0;dashed=1;" parent="eOdLBUOXUQr9Y16HXxK5-1" source="eOdLBUOXUQr9Y16HXxK5-76" target="eOdLBUOXUQr9Y16HXxK5-70" edge="1">
          <mxGeometry relative="1" as="geometry" />
        </mxCell>
        <mxCell id="eOdLBUOXUQr9Y16HXxK5-78" value="Extends" style="edgeLabel;html=1;align=center;verticalAlign=middle;resizable=0;points=[];" parent="eOdLBUOXUQr9Y16HXxK5-77" vertex="1" connectable="0">
          <mxGeometry x="0.044" y="1" relative="1" as="geometry">
            <mxPoint as="offset" />
          </mxGeometry>
        </mxCell>
        <mxCell id="eOdLBUOXUQr9Y16HXxK5-76" value="Update Learning Profile" style="ellipse;whiteSpace=wrap;html=1;" parent="eOdLBUOXUQr9Y16HXxK5-1" vertex="1">
          <mxGeometry x="340" y="1560" width="120" height="80" as="geometry" />
        </mxCell>
        <mxCell id="eOdLBUOXUQr9Y16HXxK5-81" value="List Mock Test Participants" style="ellipse;whiteSpace=wrap;html=1;" parent="eOdLBUOXUQr9Y16HXxK5-1" vertex="1">
          <mxGeometry x="67.5" y="1850" width="140" height="90" as="geometry" />
        </mxCell>
        <mxCell id="eOdLBUOXUQr9Y16HXxK5-83" value="List Mock Test Questions" style="ellipse;whiteSpace=wrap;html=1;" parent="eOdLBUOXUQr9Y16HXxK5-1" vertex="1">
          <mxGeometry x="55" y="2160" width="130" height="90" as="geometry" />
        </mxCell>
        <mxCell id="eOdLBUOXUQr9Y16HXxK5-86" style="rounded=0;orthogonalLoop=1;jettySize=auto;html=1;exitX=0;exitY=0.5;exitDx=0;exitDy=0;entryX=1;entryY=0.5;entryDx=0;entryDy=0;dashed=1;" parent="eOdLBUOXUQr9Y16HXxK5-1" source="eOdLBUOXUQr9Y16HXxK5-85" target="eOdLBUOXUQr9Y16HXxK5-83" edge="1">
          <mxGeometry relative="1" as="geometry" />
        </mxCell>
        <mxCell id="eOdLBUOXUQr9Y16HXxK5-87" value="Extends" style="edgeLabel;html=1;align=center;verticalAlign=middle;resizable=0;points=[];" parent="eOdLBUOXUQr9Y16HXxK5-86" vertex="1" connectable="0">
          <mxGeometry x="-0.1502" y="1" relative="1" as="geometry">
            <mxPoint as="offset" />
          </mxGeometry>
        </mxCell>
        <mxCell id="eOdLBUOXUQr9Y16HXxK5-85" value="Create New Mock Test Question" style="ellipse;whiteSpace=wrap;html=1;" parent="eOdLBUOXUQr9Y16HXxK5-1" vertex="1">
          <mxGeometry x="303.5" y="2030" width="135" height="90" as="geometry" />
        </mxCell>
        <mxCell id="eOdLBUOXUQr9Y16HXxK5-91" style="rounded=0;orthogonalLoop=1;jettySize=auto;html=1;exitX=0;exitY=0.5;exitDx=0;exitDy=0;entryX=1;entryY=0.5;entryDx=0;entryDy=0;dashed=1;" parent="eOdLBUOXUQr9Y16HXxK5-1" source="eOdLBUOXUQr9Y16HXxK5-88" target="eOdLBUOXUQr9Y16HXxK5-83" edge="1">
          <mxGeometry relative="1" as="geometry" />
        </mxCell>
        <mxCell id="eOdLBUOXUQr9Y16HXxK5-92" value="Extends" style="edgeLabel;html=1;align=center;verticalAlign=middle;resizable=0;points=[];" parent="eOdLBUOXUQr9Y16HXxK5-91" vertex="1" connectable="0">
          <mxGeometry x="0.0744" y="-2" relative="1" as="geometry">
            <mxPoint as="offset" />
          </mxGeometry>
        </mxCell>
        <mxCell id="eOdLBUOXUQr9Y16HXxK5-88" value="Update Mock Test Question" style="ellipse;whiteSpace=wrap;html=1;" parent="eOdLBUOXUQr9Y16HXxK5-1" vertex="1">
          <mxGeometry x="300" y="2180" width="138.5" height="100" as="geometry" />
        </mxCell>
        <mxCell id="1i5QTq9m0XpdJ1vdfl34-3" style="rounded=0;orthogonalLoop=1;jettySize=auto;html=1;entryX=0.5;entryY=1;entryDx=0;entryDy=0;dashed=1;" edge="1" parent="eOdLBUOXUQr9Y16HXxK5-1" source="1i5QTq9m0XpdJ1vdfl34-1" target="eOdLBUOXUQr9Y16HXxK5-81">
          <mxGeometry relative="1" as="geometry" />
        </mxCell>
        <mxCell id="1i5QTq9m0XpdJ1vdfl34-4" value="Extends" style="edgeLabel;html=1;align=center;verticalAlign=middle;resizable=0;points=[];" vertex="1" connectable="0" parent="1i5QTq9m0XpdJ1vdfl34-3">
          <mxGeometry x="-0.0275" y="-2" relative="1" as="geometry">
            <mxPoint as="offset" />
          </mxGeometry>
        </mxCell>
        <mxCell id="1i5QTq9m0XpdJ1vdfl34-1" value="List Mock Test Results" style="ellipse;whiteSpace=wrap;html=1;" vertex="1" parent="eOdLBUOXUQr9Y16HXxK5-1">
          <mxGeometry x="500" y="1890" width="140" height="90" as="geometry" />
        </mxCell>
        <mxCell id="1i5QTq9m0XpdJ1vdfl34-5" value="List Test Applicants" style="ellipse;whiteSpace=wrap;html=1;" vertex="1" parent="eOdLBUOXUQr9Y16HXxK5-1">
          <mxGeometry x="80" y="2350" width="130" height="100" as="geometry" />
        </mxCell>
        <mxCell id="1i5QTq9m0XpdJ1vdfl34-8" style="rounded=0;orthogonalLoop=1;jettySize=auto;html=1;exitX=0;exitY=0.5;exitDx=0;exitDy=0;dashed=1;" edge="1" parent="eOdLBUOXUQr9Y16HXxK5-1" source="1i5QTq9m0XpdJ1vdfl34-7" target="1i5QTq9m0XpdJ1vdfl34-5">
          <mxGeometry relative="1" as="geometry" />
        </mxCell>
        <mxCell id="1i5QTq9m0XpdJ1vdfl34-9" value="Extends" style="edgeLabel;html=1;align=center;verticalAlign=middle;resizable=0;points=[];" vertex="1" connectable="0" parent="1i5QTq9m0XpdJ1vdfl34-8">
          <mxGeometry x="-0.0143" relative="1" as="geometry">
            <mxPoint x="1" as="offset" />
          </mxGeometry>
        </mxCell>
        <mxCell id="1i5QTq9m0XpdJ1vdfl34-7" value="Register New Test Applicant" style="ellipse;whiteSpace=wrap;html=1;" vertex="1" parent="eOdLBUOXUQr9Y16HXxK5-1">
          <mxGeometry x="290" y="2350" width="130" height="100" as="geometry" />
        </mxCell>
        <mxCell id="1i5QTq9m0XpdJ1vdfl34-13" style="rounded=0;orthogonalLoop=1;jettySize=auto;html=1;exitX=0;exitY=0.5;exitDx=0;exitDy=0;entryX=0.5;entryY=1;entryDx=0;entryDy=0;dashed=1;" edge="1" parent="eOdLBUOXUQr9Y16HXxK5-1" source="1i5QTq9m0XpdJ1vdfl34-10" target="1i5QTq9m0XpdJ1vdfl34-5">
          <mxGeometry relative="1" as="geometry" />
        </mxCell>
        <mxCell id="1i5QTq9m0XpdJ1vdfl34-14" value="Extends" style="edgeLabel;html=1;align=center;verticalAlign=middle;resizable=0;points=[];" vertex="1" connectable="0" parent="1i5QTq9m0XpdJ1vdfl34-13">
          <mxGeometry x="-0.0181" y="-1" relative="1" as="geometry">
            <mxPoint y="1" as="offset" />
          </mxGeometry>
        </mxCell>
        <mxCell id="1i5QTq9m0XpdJ1vdfl34-10" value="Update Test Applicant Details" style="ellipse;whiteSpace=wrap;html=1;" vertex="1" parent="eOdLBUOXUQr9Y16HXxK5-1">
          <mxGeometry x="290" y="2500" width="135" height="100" as="geometry" />
        </mxCell>
        <mxCell id="1i5QTq9m0XpdJ1vdfl34-17" value="List Learning Material" style="ellipse;whiteSpace=wrap;html=1;" vertex="1" parent="eOdLBUOXUQr9Y16HXxK5-1">
          <mxGeometry x="380" y="970" width="131" height="90" as="geometry" />
        </mxCell>
        <mxCell id="1i5QTq9m0XpdJ1vdfl34-20" style="rounded=0;orthogonalLoop=1;jettySize=auto;html=1;exitX=0.5;exitY=0;exitDx=0;exitDy=0;entryX=0.5;entryY=1;entryDx=0;entryDy=0;dashed=1;" edge="1" parent="eOdLBUOXUQr9Y16HXxK5-1" source="1i5QTq9m0XpdJ1vdfl34-19" target="1i5QTq9m0XpdJ1vdfl34-17">
          <mxGeometry relative="1" as="geometry" />
        </mxCell>
        <mxCell id="1i5QTq9m0XpdJ1vdfl34-21" value="Extends" style="edgeLabel;html=1;align=center;verticalAlign=middle;resizable=0;points=[];" vertex="1" connectable="0" parent="1i5QTq9m0XpdJ1vdfl34-20">
          <mxGeometry x="0.0449" y="-4" relative="1" as="geometry">
            <mxPoint x="-1" as="offset" />
          </mxGeometry>
        </mxCell>
        <mxCell id="1i5QTq9m0XpdJ1vdfl34-19" value="Create New Learning Material" style="ellipse;whiteSpace=wrap;html=1;" vertex="1" parent="eOdLBUOXUQr9Y16HXxK5-1">
          <mxGeometry x="370" y="1110" width="134" height="90" as="geometry" />
        </mxCell>
        <mxCell id="1i5QTq9m0XpdJ1vdfl34-25" style="rounded=0;orthogonalLoop=1;jettySize=auto;html=1;exitX=0.5;exitY=1;exitDx=0;exitDy=0;entryX=0.5;entryY=0;entryDx=0;entryDy=0;dashed=1;" edge="1" parent="eOdLBUOXUQr9Y16HXxK5-1" source="1i5QTq9m0XpdJ1vdfl34-24" target="1i5QTq9m0XpdJ1vdfl34-17">
          <mxGeometry relative="1" as="geometry" />
        </mxCell>
        <mxCell id="1i5QTq9m0XpdJ1vdfl34-26" value="Extends" style="edgeLabel;html=1;align=center;verticalAlign=middle;resizable=0;points=[];" vertex="1" connectable="0" parent="1i5QTq9m0XpdJ1vdfl34-25">
          <mxGeometry x="-0.2422" y="-1" relative="1" as="geometry">
            <mxPoint as="offset" />
          </mxGeometry>
        </mxCell>
        <mxCell id="1i5QTq9m0XpdJ1vdfl34-24" value="Update Learning Material" style="ellipse;whiteSpace=wrap;html=1;" vertex="1" parent="eOdLBUOXUQr9Y16HXxK5-1">
          <mxGeometry x="385.5" y="840" width="134.5" height="90" as="geometry" />
        </mxCell>
        <mxCell id="1i5QTq9m0XpdJ1vdfl34-28" style="rounded=0;orthogonalLoop=1;jettySize=auto;html=1;exitX=0;exitY=0.5;exitDx=0;exitDy=0;entryX=1;entryY=0.5;entryDx=0;entryDy=0;dashed=1;" edge="1" parent="eOdLBUOXUQr9Y16HXxK5-1" source="1i5QTq9m0XpdJ1vdfl34-27" target="1i5QTq9m0XpdJ1vdfl34-17">
          <mxGeometry relative="1" as="geometry" />
        </mxCell>
        <mxCell id="1i5QTq9m0XpdJ1vdfl34-29" value="Extends" style="edgeLabel;html=1;align=center;verticalAlign=middle;resizable=0;points=[];" vertex="1" connectable="0" parent="1i5QTq9m0XpdJ1vdfl34-28">
          <mxGeometry x="0.0666" relative="1" as="geometry">
            <mxPoint x="1" as="offset" />
          </mxGeometry>
        </mxCell>
        <mxCell id="1i5QTq9m0XpdJ1vdfl34-27" value="View Learning Material Details" style="ellipse;whiteSpace=wrap;html=1;" vertex="1" parent="eOdLBUOXUQr9Y16HXxK5-1">
          <mxGeometry x="560" y="850" width="150" height="100" as="geometry" />
        </mxCell>
        <mxCell id="1i5QTq9m0XpdJ1vdfl34-30" value="List News" style="ellipse;whiteSpace=wrap;html=1;" vertex="1" parent="eOdLBUOXUQr9Y16HXxK5-1">
          <mxGeometry x="377" y="1260" width="133" height="90" as="geometry" />
        </mxCell>
        <mxCell id="1i5QTq9m0XpdJ1vdfl34-33" style="rounded=0;orthogonalLoop=1;jettySize=auto;html=1;exitX=0.5;exitY=0;exitDx=0;exitDy=0;entryX=0.5;entryY=1;entryDx=0;entryDy=0;dashed=1;" edge="1" parent="eOdLBUOXUQr9Y16HXxK5-1" source="1i5QTq9m0XpdJ1vdfl34-32" target="1i5QTq9m0XpdJ1vdfl34-30">
          <mxGeometry relative="1" as="geometry" />
        </mxCell>
        <mxCell id="1i5QTq9m0XpdJ1vdfl34-34" value="Extends" style="edgeLabel;html=1;align=center;verticalAlign=middle;resizable=0;points=[];" vertex="1" connectable="0" parent="1i5QTq9m0XpdJ1vdfl34-33">
          <mxGeometry x="-0.1508" y="-2" relative="1" as="geometry">
            <mxPoint as="offset" />
          </mxGeometry>
        </mxCell>
        <mxCell id="1i5QTq9m0XpdJ1vdfl34-32" value="Create News" style="ellipse;whiteSpace=wrap;html=1;" vertex="1" parent="eOdLBUOXUQr9Y16HXxK5-1">
          <mxGeometry x="290" y="1440" width="120" height="80" as="geometry" />
        </mxCell>
        <mxCell id="1i5QTq9m0XpdJ1vdfl34-37" style="rounded=0;orthogonalLoop=1;jettySize=auto;html=1;exitX=0.5;exitY=0;exitDx=0;exitDy=0;entryX=0.5;entryY=1;entryDx=0;entryDy=0;dashed=1;" edge="1" parent="eOdLBUOXUQr9Y16HXxK5-1" source="1i5QTq9m0XpdJ1vdfl34-36" target="1i5QTq9m0XpdJ1vdfl34-30">
          <mxGeometry relative="1" as="geometry" />
        </mxCell>
        <mxCell id="1i5QTq9m0XpdJ1vdfl34-38" value="Extends" style="edgeLabel;html=1;align=center;verticalAlign=middle;resizable=0;points=[];" vertex="1" connectable="0" parent="1i5QTq9m0XpdJ1vdfl34-37">
          <mxGeometry x="0.0491" y="5" relative="1" as="geometry">
            <mxPoint as="offset" />
          </mxGeometry>
        </mxCell>
        <mxCell id="1i5QTq9m0XpdJ1vdfl34-36" value="Update News" style="ellipse;whiteSpace=wrap;html=1;" vertex="1" parent="eOdLBUOXUQr9Y16HXxK5-1">
          <mxGeometry x="470" y="1440" width="120" height="80" as="geometry" />
        </mxCell>
        <mxCell id="1i5QTq9m0XpdJ1vdfl34-40" style="rounded=0;orthogonalLoop=1;jettySize=auto;html=1;exitX=0;exitY=0.5;exitDx=0;exitDy=0;entryX=1;entryY=0.5;entryDx=0;entryDy=0;dashed=1;" edge="1" parent="eOdLBUOXUQr9Y16HXxK5-1" source="1i5QTq9m0XpdJ1vdfl34-39" target="1i5QTq9m0XpdJ1vdfl34-30">
          <mxGeometry relative="1" as="geometry" />
        </mxCell>
        <mxCell id="1i5QTq9m0XpdJ1vdfl34-41" value="Extends" style="edgeLabel;html=1;align=center;verticalAlign=middle;resizable=0;points=[];" vertex="1" connectable="0" parent="1i5QTq9m0XpdJ1vdfl34-40">
          <mxGeometry x="0.2102" relative="1" as="geometry">
            <mxPoint as="offset" />
          </mxGeometry>
        </mxCell>
        <mxCell id="1i5QTq9m0XpdJ1vdfl34-39" value="View News Details" style="ellipse;whiteSpace=wrap;html=1;" vertex="1" parent="eOdLBUOXUQr9Y16HXxK5-1">
          <mxGeometry x="630" y="1250" width="130" height="90" as="geometry" />
        </mxCell>
        <mxCell id="1i5QTq9m0XpdJ1vdfl34-42" value="Assign Instructor" style="ellipse;whiteSpace=wrap;html=1;" vertex="1" parent="eOdLBUOXUQr9Y16HXxK5-1">
          <mxGeometry x="68" y="2620" width="142" height="100" as="geometry" />
        </mxCell>
        <mxCell id="1i5QTq9m0XpdJ1vdfl34-52" style="rounded=0;orthogonalLoop=1;jettySize=auto;html=1;exitX=0;exitY=0.5;exitDx=0;exitDy=0;entryX=1;entryY=0.5;entryDx=0;entryDy=0;dashed=1;" edge="1" parent="eOdLBUOXUQr9Y16HXxK5-1" source="1i5QTq9m0XpdJ1vdfl34-50" target="eOdLBUOXUQr9Y16HXxK5-63">
          <mxGeometry relative="1" as="geometry" />
        </mxCell>
        <mxCell id="1i5QTq9m0XpdJ1vdfl34-53" value="Extends" style="edgeLabel;html=1;align=center;verticalAlign=middle;resizable=0;points=[];" vertex="1" connectable="0" parent="1i5QTq9m0XpdJ1vdfl34-52">
          <mxGeometry x="0.1591" y="-2" relative="1" as="geometry">
            <mxPoint x="1" as="offset" />
          </mxGeometry>
        </mxCell>
        <mxCell id="1i5QTq9m0XpdJ1vdfl34-54" style="rounded=0;orthogonalLoop=1;jettySize=auto;html=1;exitX=0;exitY=0.5;exitDx=0;exitDy=0;entryX=1;entryY=0.5;entryDx=0;entryDy=0;dashed=1;" edge="1" parent="eOdLBUOXUQr9Y16HXxK5-1" source="1i5QTq9m0XpdJ1vdfl34-50" target="eOdLBUOXUQr9Y16HXxK5-58">
          <mxGeometry relative="1" as="geometry" />
        </mxCell>
        <mxCell id="1i5QTq9m0XpdJ1vdfl34-55" value="Extends" style="edgeLabel;html=1;align=center;verticalAlign=middle;resizable=0;points=[];" vertex="1" connectable="0" parent="1i5QTq9m0XpdJ1vdfl34-54">
          <mxGeometry x="-0.0638" relative="1" as="geometry">
            <mxPoint x="-1" as="offset" />
          </mxGeometry>
        </mxCell>
        <mxCell id="1i5QTq9m0XpdJ1vdfl34-50" value="Learn a Course" style="ellipse;whiteSpace=wrap;html=1;" vertex="1" parent="eOdLBUOXUQr9Y16HXxK5-1">
          <mxGeometry x="730" y="720" width="120" height="80" as="geometry" />
        </mxCell>
        <mxCell id="1i5QTq9m0XpdJ1vdfl34-57" value="Participate in Mock Test" style="ellipse;whiteSpace=wrap;html=1;" vertex="1" parent="eOdLBUOXUQr9Y16HXxK5-1">
          <mxGeometry x="980" y="1060" width="140" height="90" as="geometry" />
        </mxCell>
        <mxCell id="1i5QTq9m0XpdJ1vdfl34-61" style="rounded=0;orthogonalLoop=1;jettySize=auto;html=1;exitX=0.5;exitY=1;exitDx=0;exitDy=0;entryX=1;entryY=0.5;entryDx=0;entryDy=0;dashed=1;" edge="1" parent="eOdLBUOXUQr9Y16HXxK5-1" source="1i5QTq9m0XpdJ1vdfl34-59" target="1i5QTq9m0XpdJ1vdfl34-1">
          <mxGeometry relative="1" as="geometry" />
        </mxCell>
        <mxCell id="1i5QTq9m0XpdJ1vdfl34-62" value="Extends" style="edgeLabel;html=1;align=center;verticalAlign=middle;resizable=0;points=[];" vertex="1" connectable="0" parent="1i5QTq9m0XpdJ1vdfl34-61">
          <mxGeometry x="0.0069" y="-5" relative="1" as="geometry">
            <mxPoint as="offset" />
          </mxGeometry>
        </mxCell>
        <mxCell id="1i5QTq9m0XpdJ1vdfl34-59" value="View Mock Test Result Details" style="ellipse;whiteSpace=wrap;html=1;" vertex="1" parent="eOdLBUOXUQr9Y16HXxK5-1">
          <mxGeometry x="840" y="1245" width="160" height="105" as="geometry" />
        </mxCell>
        <mxCell id="1i5QTq9m0XpdJ1vdfl34-71" value="List Learners" style="ellipse;whiteSpace=wrap;html=1;" vertex="1" parent="eOdLBUOXUQr9Y16HXxK5-1">
          <mxGeometry x="930" y="275" width="120" height="80" as="geometry" />
        </mxCell>
        <mxCell id="1i5QTq9m0XpdJ1vdfl34-73" value="Review Pending Payments" style="ellipse;whiteSpace=wrap;html=1;" vertex="1" parent="eOdLBUOXUQr9Y16HXxK5-1">
          <mxGeometry x="940" y="1680" width="130" height="80" as="geometry" />
        </mxCell>
        <mxCell id="eOdLBUOXUQr9Y16HXxK5-2" value="User" style="shape=umlActor;verticalLabelPosition=bottom;verticalAlign=top;html=1;" parent="1" vertex="1">
          <mxGeometry x="-80" y="230" width="20" height="50" as="geometry" />
        </mxCell>
        <mxCell id="eOdLBUOXUQr9Y16HXxK5-24" style="rounded=0;orthogonalLoop=1;jettySize=auto;html=1;exitX=0;exitY=0.5;exitDx=0;exitDy=0;endArrow=none;startFill=0;" parent="1" source="eOdLBUOXUQr9Y16HXxK5-8" target="eOdLBUOXUQr9Y16HXxK5-2" edge="1">
          <mxGeometry relative="1" as="geometry" />
        </mxCell>
        <mxCell id="eOdLBUOXUQr9Y16HXxK5-26" style="rounded=0;orthogonalLoop=1;jettySize=auto;html=1;exitX=0;exitY=0.5;exitDx=0;exitDy=0;entryX=0.5;entryY=0.5;entryDx=0;entryDy=0;entryPerimeter=0;endArrow=none;startFill=0;" parent="1" source="eOdLBUOXUQr9Y16HXxK5-22" target="eOdLBUOXUQr9Y16HXxK5-2" edge="1">
          <mxGeometry relative="1" as="geometry" />
        </mxCell>
        <mxCell id="eOdLBUOXUQr9Y16HXxK5-29" style="rounded=0;orthogonalLoop=1;jettySize=auto;html=1;exitX=0;exitY=0.5;exitDx=0;exitDy=0;entryX=0.5;entryY=0.5;entryDx=0;entryDy=0;entryPerimeter=0;endArrow=none;startFill=0;" parent="1" source="eOdLBUOXUQr9Y16HXxK5-28" target="eOdLBUOXUQr9Y16HXxK5-2" edge="1">
          <mxGeometry relative="1" as="geometry" />
        </mxCell>
        <mxCell id="eOdLBUOXUQr9Y16HXxK5-31" style="rounded=0;orthogonalLoop=1;jettySize=auto;html=1;exitX=0;exitY=0.5;exitDx=0;exitDy=0;entryX=0.5;entryY=0.5;entryDx=0;entryDy=0;entryPerimeter=0;endArrow=none;startFill=0;" parent="1" source="eOdLBUOXUQr9Y16HXxK5-30" target="eOdLBUOXUQr9Y16HXxK5-2" edge="1">
          <mxGeometry relative="1" as="geometry" />
        </mxCell>
        <mxCell id="eOdLBUOXUQr9Y16HXxK5-36" value="`" style="shape=umlActor;verticalLabelPosition=bottom;verticalAlign=top;html=1;" parent="1" vertex="1">
          <mxGeometry x="-480" y="1420" width="20" height="50" as="geometry" />
        </mxCell>
        <mxCell id="eOdLBUOXUQr9Y16HXxK5-45" style="rounded=0;orthogonalLoop=1;jettySize=auto;html=1;exitX=0;exitY=0.5;exitDx=0;exitDy=0;entryX=0.535;entryY=0.674;entryDx=0;entryDy=0;entryPerimeter=0;endArrow=none;startFill=0;" parent="1" source="eOdLBUOXUQr9Y16HXxK5-44" target="eOdLBUOXUQr9Y16HXxK5-36" edge="1">
          <mxGeometry relative="1" as="geometry" />
        </mxCell>
        <mxCell id="eOdLBUOXUQr9Y16HXxK5-59" style="rounded=0;orthogonalLoop=1;jettySize=auto;html=1;exitX=0;exitY=0.5;exitDx=0;exitDy=0;entryX=0.5;entryY=0.734;entryDx=0;entryDy=0;entryPerimeter=0;endArrow=none;startFill=0;" parent="1" source="eOdLBUOXUQr9Y16HXxK5-58" target="eOdLBUOXUQr9Y16HXxK5-36" edge="1">
          <mxGeometry relative="1" as="geometry" />
        </mxCell>
        <mxCell id="eOdLBUOXUQr9Y16HXxK5-71" style="rounded=0;orthogonalLoop=1;jettySize=auto;html=1;exitX=0;exitY=0.5;exitDx=0;exitDy=0;entryX=0.574;entryY=0.772;entryDx=0;entryDy=0;entryPerimeter=0;endArrow=none;startFill=0;" parent="1" source="eOdLBUOXUQr9Y16HXxK5-70" target="eOdLBUOXUQr9Y16HXxK5-36" edge="1">
          <mxGeometry relative="1" as="geometry" />
        </mxCell>
        <mxCell id="eOdLBUOXUQr9Y16HXxK5-82" style="rounded=0;orthogonalLoop=1;jettySize=auto;html=1;exitX=0;exitY=0.5;exitDx=0;exitDy=0;entryX=0.5;entryY=0.5;entryDx=0;entryDy=0;entryPerimeter=0;endArrow=none;startFill=0;" parent="1" source="eOdLBUOXUQr9Y16HXxK5-81" target="eOdLBUOXUQr9Y16HXxK5-36" edge="1">
          <mxGeometry relative="1" as="geometry" />
        </mxCell>
        <mxCell id="eOdLBUOXUQr9Y16HXxK5-84" style="rounded=0;orthogonalLoop=1;jettySize=auto;html=1;exitX=0;exitY=0.5;exitDx=0;exitDy=0;entryX=0.5;entryY=0.5;entryDx=0;entryDy=0;entryPerimeter=0;endArrow=none;startFill=0;" parent="1" source="eOdLBUOXUQr9Y16HXxK5-83" target="eOdLBUOXUQr9Y16HXxK5-36" edge="1">
          <mxGeometry relative="1" as="geometry" />
        </mxCell>
        <mxCell id="1i5QTq9m0XpdJ1vdfl34-6" style="rounded=0;orthogonalLoop=1;jettySize=auto;html=1;exitX=0;exitY=0.5;exitDx=0;exitDy=0;entryX=0.5;entryY=0.5;entryDx=0;entryDy=0;entryPerimeter=0;endArrow=none;startFill=0;" edge="1" parent="1" source="1i5QTq9m0XpdJ1vdfl34-5" target="eOdLBUOXUQr9Y16HXxK5-36">
          <mxGeometry relative="1" as="geometry" />
        </mxCell>
        <mxCell id="1i5QTq9m0XpdJ1vdfl34-18" style="rounded=0;orthogonalLoop=1;jettySize=auto;html=1;exitX=0;exitY=0.5;exitDx=0;exitDy=0;entryX=0.5;entryY=0.5;entryDx=0;entryDy=0;entryPerimeter=0;endArrow=none;startFill=0;" edge="1" parent="1" source="1i5QTq9m0XpdJ1vdfl34-17" target="eOdLBUOXUQr9Y16HXxK5-36">
          <mxGeometry relative="1" as="geometry" />
        </mxCell>
        <mxCell id="1i5QTq9m0XpdJ1vdfl34-22" style="rounded=0;orthogonalLoop=1;jettySize=auto;html=1;exitX=0;exitY=0.5;exitDx=0;exitDy=0;entryX=0.5;entryY=0.5;entryDx=0;entryDy=0;entryPerimeter=0;endArrow=none;startFill=0;" edge="1" parent="1" source="eOdLBUOXUQr9Y16HXxK5-60" target="eOdLBUOXUQr9Y16HXxK5-36">
          <mxGeometry relative="1" as="geometry" />
        </mxCell>
        <mxCell id="1i5QTq9m0XpdJ1vdfl34-23" style="rounded=0;orthogonalLoop=1;jettySize=auto;html=1;exitX=0;exitY=0.5;exitDx=0;exitDy=0;entryX=0.5;entryY=0.5;entryDx=0;entryDy=0;entryPerimeter=0;endArrow=none;startFill=0;" edge="1" parent="1" source="1i5QTq9m0XpdJ1vdfl34-19" target="eOdLBUOXUQr9Y16HXxK5-36">
          <mxGeometry relative="1" as="geometry" />
        </mxCell>
        <mxCell id="1i5QTq9m0XpdJ1vdfl34-31" style="rounded=0;orthogonalLoop=1;jettySize=auto;html=1;exitX=0;exitY=0.5;exitDx=0;exitDy=0;entryX=0.5;entryY=0.5;entryDx=0;entryDy=0;entryPerimeter=0;endArrow=none;startFill=0;" edge="1" parent="1" source="1i5QTq9m0XpdJ1vdfl34-30" target="eOdLBUOXUQr9Y16HXxK5-36">
          <mxGeometry relative="1" as="geometry" />
        </mxCell>
        <mxCell id="1i5QTq9m0XpdJ1vdfl34-35" style="rounded=0;orthogonalLoop=1;jettySize=auto;html=1;exitX=0;exitY=0.5;exitDx=0;exitDy=0;entryX=0.5;entryY=0.5;entryDx=0;entryDy=0;entryPerimeter=0;endArrow=none;startFill=0;" edge="1" parent="1" source="1i5QTq9m0XpdJ1vdfl34-32" target="eOdLBUOXUQr9Y16HXxK5-36">
          <mxGeometry relative="1" as="geometry" />
        </mxCell>
        <mxCell id="1i5QTq9m0XpdJ1vdfl34-2" style="rounded=0;orthogonalLoop=1;jettySize=auto;html=1;exitX=0;exitY=0.5;exitDx=0;exitDy=0;endArrow=none;startFill=0;entryX=0.5;entryY=0.5;entryDx=0;entryDy=0;entryPerimeter=0;" edge="1" parent="1" source="1i5QTq9m0XpdJ1vdfl34-1" target="eOdLBUOXUQr9Y16HXxK5-36">
          <mxGeometry relative="1" as="geometry">
            <mxPoint x="-340" y="950" as="targetPoint" />
          </mxGeometry>
        </mxCell>
        <mxCell id="1i5QTq9m0XpdJ1vdfl34-43" style="rounded=0;orthogonalLoop=1;jettySize=auto;html=1;exitX=0;exitY=0.5;exitDx=0;exitDy=0;entryX=0.5;entryY=0.5;entryDx=0;entryDy=0;entryPerimeter=0;endArrow=none;startFill=0;" edge="1" parent="1" source="1i5QTq9m0XpdJ1vdfl34-42" target="eOdLBUOXUQr9Y16HXxK5-36">
          <mxGeometry relative="1" as="geometry" />
        </mxCell>
        <mxCell id="1i5QTq9m0XpdJ1vdfl34-47" value="Learner" style="shape=umlActor;verticalLabelPosition=bottom;verticalAlign=top;html=1;outlineConnect=0;" vertex="1" parent="1">
          <mxGeometry x="1430" y="790" width="20" height="50" as="geometry" />
        </mxCell>
        <mxCell id="1i5QTq9m0XpdJ1vdfl34-48" style="rounded=0;orthogonalLoop=1;jettySize=auto;html=1;exitX=1;exitY=0.5;exitDx=0;exitDy=0;entryX=0.5;entryY=0.5;entryDx=0;entryDy=0;entryPerimeter=0;endArrow=none;startFill=0;" edge="1" parent="1" source="eOdLBUOXUQr9Y16HXxK5-58" target="1i5QTq9m0XpdJ1vdfl34-47">
          <mxGeometry relative="1" as="geometry" />
        </mxCell>
        <mxCell id="1i5QTq9m0XpdJ1vdfl34-51" style="rounded=0;orthogonalLoop=1;jettySize=auto;html=1;exitX=1;exitY=0.5;exitDx=0;exitDy=0;entryX=0.5;entryY=0.5;entryDx=0;entryDy=0;entryPerimeter=0;endArrow=none;startFill=0;" edge="1" parent="1" source="1i5QTq9m0XpdJ1vdfl34-50" target="1i5QTq9m0XpdJ1vdfl34-47">
          <mxGeometry relative="1" as="geometry" />
        </mxCell>
        <mxCell id="1i5QTq9m0XpdJ1vdfl34-56" style="rounded=0;orthogonalLoop=1;jettySize=auto;html=1;exitX=1;exitY=0.5;exitDx=0;exitDy=0;entryX=0.5;entryY=0.5;entryDx=0;entryDy=0;entryPerimeter=0;endArrow=none;startFill=0;" edge="1" parent="1" source="1i5QTq9m0XpdJ1vdfl34-1" target="1i5QTq9m0XpdJ1vdfl34-47">
          <mxGeometry relative="1" as="geometry">
            <mxPoint x="1259.9999999999995" y="1300" as="targetPoint" />
          </mxGeometry>
        </mxCell>
        <mxCell id="1i5QTq9m0XpdJ1vdfl34-58" style="rounded=0;orthogonalLoop=1;jettySize=auto;html=1;exitX=1;exitY=0.5;exitDx=0;exitDy=0;entryX=0.5;entryY=0.5;entryDx=0;entryDy=0;entryPerimeter=0;endArrow=none;startFill=0;" edge="1" parent="1" source="1i5QTq9m0XpdJ1vdfl34-57" target="1i5QTq9m0XpdJ1vdfl34-47">
          <mxGeometry relative="1" as="geometry" />
        </mxCell>
        <mxCell id="1i5QTq9m0XpdJ1vdfl34-60" style="rounded=0;orthogonalLoop=1;jettySize=auto;html=1;exitX=1;exitY=0.5;exitDx=0;exitDy=0;entryX=0.5;entryY=0.5;entryDx=0;entryDy=0;entryPerimeter=0;endArrow=none;startFill=0;" edge="1" parent="1" source="1i5QTq9m0XpdJ1vdfl34-59" target="1i5QTq9m0XpdJ1vdfl34-47">
          <mxGeometry relative="1" as="geometry" />
        </mxCell>
        <mxCell id="1i5QTq9m0XpdJ1vdfl34-63" style="rounded=0;orthogonalLoop=1;jettySize=auto;html=1;exitX=1;exitY=0.5;exitDx=0;exitDy=0;entryX=0.5;entryY=0.5;entryDx=0;entryDy=0;entryPerimeter=0;endArrow=none;startFill=0;" edge="1" parent="1" source="1i5QTq9m0XpdJ1vdfl34-17" target="1i5QTq9m0XpdJ1vdfl34-47">
          <mxGeometry relative="1" as="geometry" />
        </mxCell>
        <mxCell id="1i5QTq9m0XpdJ1vdfl34-64" style="rounded=0;orthogonalLoop=1;jettySize=auto;html=1;exitX=1;exitY=0.5;exitDx=0;exitDy=0;entryX=0.5;entryY=0.5;entryDx=0;entryDy=0;entryPerimeter=0;endArrow=none;startFill=0;" edge="1" parent="1" source="1i5QTq9m0XpdJ1vdfl34-27" target="1i5QTq9m0XpdJ1vdfl34-47">
          <mxGeometry relative="1" as="geometry" />
        </mxCell>
        <mxCell id="1i5QTq9m0XpdJ1vdfl34-65" style="rounded=0;orthogonalLoop=1;jettySize=auto;html=1;exitX=1;exitY=0.5;exitDx=0;exitDy=0;entryX=0.5;entryY=0.5;entryDx=0;entryDy=0;entryPerimeter=0;endArrow=none;startFill=0;" edge="1" parent="1" source="1i5QTq9m0XpdJ1vdfl34-30" target="1i5QTq9m0XpdJ1vdfl34-47">
          <mxGeometry relative="1" as="geometry" />
        </mxCell>
        <mxCell id="1i5QTq9m0XpdJ1vdfl34-67" value="Instructor" style="shape=umlActor;verticalLabelPosition=bottom;verticalAlign=top;html=1;outlineConnect=0;" vertex="1" parent="1">
          <mxGeometry x="1370" y="430" width="20" height="50" as="geometry" />
        </mxCell>
        <mxCell id="1i5QTq9m0XpdJ1vdfl34-68" value="Accountant" style="shape=umlActor;verticalLabelPosition=bottom;verticalAlign=top;html=1;outlineConnect=0;" vertex="1" parent="1">
          <mxGeometry x="1340" y="1840" width="20" height="50" as="geometry" />
        </mxCell>
        <mxCell id="1i5QTq9m0XpdJ1vdfl34-69" style="rounded=0;orthogonalLoop=1;jettySize=auto;html=1;exitX=1;exitY=0.5;exitDx=0;exitDy=0;entryX=0.5;entryY=0.5;entryDx=0;entryDy=0;entryPerimeter=0;endArrow=none;startFill=0;" edge="1" parent="1" source="eOdLBUOXUQr9Y16HXxK5-58" target="1i5QTq9m0XpdJ1vdfl34-67">
          <mxGeometry relative="1" as="geometry" />
        </mxCell>
        <mxCell id="1i5QTq9m0XpdJ1vdfl34-70" style="rounded=0;orthogonalLoop=1;jettySize=auto;html=1;exitX=1;exitY=0.5;exitDx=0;exitDy=0;entryX=0.5;entryY=0.5;entryDx=0;entryDy=0;entryPerimeter=0;endArrow=none;startFill=0;" edge="1" parent="1" source="1i5QTq9m0XpdJ1vdfl34-30" target="1i5QTq9m0XpdJ1vdfl34-67">
          <mxGeometry relative="1" as="geometry" />
        </mxCell>
        <mxCell id="1i5QTq9m0XpdJ1vdfl34-72" style="rounded=0;orthogonalLoop=1;jettySize=auto;html=1;exitX=1;exitY=0.5;exitDx=0;exitDy=0;entryX=0.5;entryY=0.5;entryDx=0;entryDy=0;entryPerimeter=0;endArrow=none;startFill=0;" edge="1" parent="1" source="1i5QTq9m0XpdJ1vdfl34-71" target="1i5QTq9m0XpdJ1vdfl34-67">
          <mxGeometry relative="1" as="geometry" />
        </mxCell>
        <mxCell id="1i5QTq9m0XpdJ1vdfl34-74" style="rounded=0;orthogonalLoop=1;jettySize=auto;html=1;exitX=1;exitY=0.5;exitDx=0;exitDy=0;entryX=0.5;entryY=0.5;entryDx=0;entryDy=0;entryPerimeter=0;endArrow=none;startFill=0;" edge="1" parent="1" source="1i5QTq9m0XpdJ1vdfl34-73" target="1i5QTq9m0XpdJ1vdfl34-68">
          <mxGeometry relative="1" as="geometry" />
        </mxCell>
      </root>
    </mxGraphModel>
  </diagram>
</mxfile>
